<?xml version="1.0" encoding="UTF-8"?>
<!DOCTYPE svg PUBLIC "-//W3C//DTD SVG 1.1//EN" "http://www.w3.org/Graphics/SVG/1.1/DTD/svg11.dtd">
<!-- Creator: CorelDRAW -->
<svg xmlns="http://www.w3.org/2000/svg" xml:space="preserve" width="2048px" height="2048px" style="shape-rendering:geometricPrecision; text-rendering:geometricPrecision; image-rendering:optimizeQuality; fill-rule:evenodd; clip-rule:evenodd"
viewBox="0 0 2048 2048"
 xmlns:xlink="http://www.w3.org/1999/xlink">
 <defs>
  <style type="text/css">
   <![CDATA[
    .fil0 {fill:#42A5F5}
    .fil1 {fill:white;fill-rule:nonzero}
   ]]>
  </style>
 </defs>
 <g id="Layer_x0020_1">
  <metadata id="CorelCorpID_0Corel-Layer"/>
  <rect class="fil0" width="2048" height="2048" rx="256.001" ry="256.001"/>
  <path class="fil1" d="M1567.09 1567.15c-138.97,138.97 -330.973,224.906 -543.108,224.906 -424.068,0 -767.989,-343.947 -767.989,-768.014 0,-423.903 344.057,-768.096 767.989,-768.096 424.134,0 768.014,343.989 768.014,768.096 0,212.134 -85.9359,404.139 -224.906,543.108zm-423.065 -178.479c-0.807875,0.285827 -1.59213,0.62126 -2.34921,1.00158 -2.69882,0.82441 -7.10079,2.87362 -9.38741,4.54134 -3.9,1.87677 -9.14528,5.98819 -11.7957,9.59056 -0.69567,0.703938 -1.32992,1.44685 -1.89921,2.22284 -0.933072,0.868111 -1.77047,1.81299 -2.50866,2.82402 -0.987402,1.05 -1.71851,2.0811 -2.50984,3.26929 -1.10315,1.35591 -2.00079,2.82166 -2.69646,4.35709 -1.29095,1.9441 -2.19803,4.03229 -2.7378,6.17363 -0.557481,1.33347 -1.11378,3.07796 -1.41496,4.47874 -0.51378,1.30748 -0.976772,2.84055 -1.37244,4.13977 -1.74449,3.73229 -2.54055,8.80276 -2.0563,12.9815 -0.399213,1.40433 -0.765355,3.23859 -0.935434,4.68898 -0.292914,1.36299 -0.448819,2.78386 -0.448819,4.22717l0 9.06261c0,1.23898 0.108662,2.36103 0.309449,3.45 0.0011811,1.16339 0.103937,2.33858 0.315355,3.5126 0,1.60039 0.0141732,3.00945 0.295276,4.60985 -0.00472441,1.79764 0.0377953,3.52441 0.329528,5.29489 0,2.43543 -0.0248032,4.4752 0.558662,6.90001 0.506693,3.20788 1.78701,7.09134 3.50433,9.78544l0 7.07127c0,1.08425 0.348425,2.0941 0.940158,2.91614 0,11.0622 8.9315,20.0268 19.9996,20.0268l9.46064 0c2.59961,0 5.14607,-0.505512 7.50945,-1.46339 2.85591,-0.3 5.65748,-1.21299 8.19449,-2.73898l0.708662 -0.308268c3.15827,-0.683859 6.18426,-2.13898 8.7756,-4.36654 3.24803,-1.6311 5.17323,-3.74174 7.62638,-6.19252 1.57677,-1.52244 2.92796,-3.32835 3.96851,-5.3941 0.506693,-0.589371 0.983859,-1.21299 1.42559,-1.86969 3.49843,-2.36221 6.20906,-5.8004 7.65591,-9.84095 1.70906,-1.70906 3.01181,-3.19843 4.17992,-5.36103 3.54567,-1.91693 6.44528,-4.87441 8.29253,-8.4626l0.806694 -0.806694c2.14725,-1.10433 4.0689,-2.58544 5.67638,-4.35709 0.940158,-0.8563 1.79882,-1.80118 2.56299,-2.82166 2.43425,-1.82244 4.44213,-4.18347 5.83937,-6.91064 0.669686,-0.634252 1.78819,-1.75512 2.38347,-2.40591 1.73858,-1.57795 3.19725,-3.45709 4.29567,-5.55591l6.75945 -2.83701 6.68859 0c0.329528,0 0.657875,-0.0318898 0.980316,-0.0968505l6.24922 -1.24961c1.6878,-0.337796 3.54213,-0.879922 5.23347,-1.30276l4.40197 -1.10079 5.63504 0c1.00748,0 2.23347,-0.403937 3.22087,-0.650788 2.29134,-0.116929 4.47874,-0.620079 6.50315,-1.44449l2.50748 -0.501969c1.12087,-0.22441 2.31496,-1.03347 3.37205,-1.77284 1.42913,-0.120473 4.52953,-0.617717 5.76615,-1.37126 2.20276,-0.887009 4.21063,-2.15433 5.94331,-3.72166 0.915355,-0.522048 1.72205,-1.12441 2.22402,-2.19213l0.522048 -0.551575c2.18622,-1.98898 3.92835,-4.45512 5.06339,-7.23544 1.09488,-1.82599 1.90512,-3.84213 2.37166,-5.98701 0.907087,-1.98071 1.47284,-4.08071 1.69843,-6.20906 0.689764,-1.69725 1.15394,-3.51378 1.35354,-5.40709 3.40512,-5.70827 3.64252,-12.502 1.14449,-18.2362l0.236221 -0.269292c0.917717,-0.793701 1.75158,-1.66063 2.49685,-2.58898 1.04646,-0.839764 1.99134,-1.77284 2.8311,-2.7815 1.4811,-1.23425 2.7437,-2.64921 3.77835,-4.18937 2.21339,-2.40118 4.71851,-4.31929 6.57993,-7.07599 1.23307,-1.23307 2.46614,-2.46614 3.69922,-3.69922 1.89213,-1.89213 3.4063,-3.38504 4.76221,-5.77796 1.93701,-1.93819 3.94961,-3.75473 5.46142,-6.06024 0.927166,-1.08662 1.71969,-2.24882 2.37756,-3.46536 1.08071,-1.33701 2.17677,-3.11575 3.11457,-4.52363 0.676772,-1.01693 1.37599,-2.01614 1.96063,-3.09213 0.917717,-1.13268 1.6937,-2.34213 2.32795,-3.60355l0.227953 -0.330709c1.34055,-1.41732 2.44488,-3.00355 3.30118,-4.69843 0.451181,-0.679134 0.882284,-1.34055 1.27205,-2.06103 1.10079,-1.35 1.83898,-2.64685 2.60197,-4.17402 1.84961,-3.45709 2.61142,-7.45867 2.29725,-11.3669 1.31221,-1.57559 2.13425,-3.08268 3.03425,-4.88386 2.96103,-5.92441 2.85709,-14.1839 -0.303544,-20.0043l0.0011811 -5.07166c0,-1.70079 -0.848032,-3.20197 -2.14606,-4.10551 -0.167717,-0.242126 -0.359055,-0.468898 -0.56693,-0.676772l0.0011811 -0.0011811c-0.785434,-0.785434 -1.54961,-1.6878 -2.55236,-2.18977l-1.77402 -0.885827c-0.575197,-0.288189 -0.89882,-0.940158 -1.4374,-1.30039l-1.3689 -0.912993c-0.103937,-9.1004 -6.31418,-16.9642 -15.0886,-19.1799 -3.45473,-2.41772 -7.61221,-3.69567 -11.8417,-3.62244 -11.1331,0 -20.1496,8.82757 -20.1496,19.9996l0 6.25158c-0.598819,0.836221 -1.13504,1.71969 -1.60039,2.64567 -1.00158,1.16693 -1.88268,2.46732 -2.61732,3.8941 -1.2815,1.28032 -2.55709,2.47559 -3.64725,3.9378 -0.949607,0.711024 -1.74921,1.45984 -2.58307,2.29134 -2.38229,1.22244 -4.53307,2.93032 -6.29056,5.06693l-0.28937 0.243307c-2.2004,1.10551 -3.84685,2.41418 -5.57363,4.14095 -3.71811,1.91103 -6.52914,5.17796 -9.46064,8.10946 -0.666142,0.34252 -1.31811,0.725197 -1.95118,1.14685 -1.64882,0.347244 -2.77559,-0.101575 -4.32874,1.00394 -2.48268,0.360236 -5.17323,1.24488 -7.55434,2.02205 -2.01851,0.287008 -3.89292,0.904725 -5.78504,1.63937 -1.74567,0.307087 -3.45827,0.848032 -5.08819,1.62165 -2.19213,0.448819 -3.77717,1.15866 -5.74252,2.10591 -1.43268,0.454725 -2.93504,0.962599 -4.28032,1.63347l-1.68898 0.844489c-0.820867,0.166536 -1.63347,0.386221 -2.43189,0.655512 -2.30551,0.0779528 -4.51418,0.54567 -6.55749,1.33937 -3.04961,0 -5.51221,0.297638 -8.37993,1.46102 -3.4878,0.364961 -6.71103,1.62638 -9.43111,3.55158 -0.470079,0.151181 -0.933072,0.320079 -1.38662,0.504331 -4.86969,0.511418 -9.21733,2.76851 -12.4075,6.13583 -2.14961,1.10315 -4.07363,2.58307 -5.68347,4.35237 -0.711024,0.646063 -1.37599,1.34291 -1.9878,2.08465 -1.41142,1.16811 -2.80512,2.67638 -4.12087,3.99213 -2.05748,2.05984 -3.63307,3.68859 -5.00433,6.36378 -1.51299,1.42913 -2.97402,2.96575 -4.44803,4.43977 -0.905906,0.905906 -1.82362,1.78465 -2.64331,2.77323 -2.49803,2.06575 -5.07402,4.96181 -6.50079,7.80473 -1.7811,2.07047 -3.06969,4.41851 -3.86457,6.89056 -0.891733,1.25906 -1.62047,2.59843 -2.1874,3.9874 -0.211417,0.354331 -0.497244,0.993308 -0.758268,1.25669zm-57.776 -141.194c17.8276,-23.8831 34.0229,-50.2229 43.578,-68.4119l0.125197 -0.37441c8.43544,-16.5012 26.8855,-47.289 48.7937,-73.6642 13.3394,-16.0595 27.515,-30.0142 40.2496,-36.4925l0.0248032 0.0484252c22.5,-11.2193 45.4016,-23.4614 64.5686,-34.8756 17.9102,-10.6665 31.937,-20.615 38.8323,-28.5236 11.3776,-11.3776 23.387,-20.654 28.3276,-36.8941 7.06418,-23.2276 0.714567,-42.8374 -33.2044,-53.1556l-0.250394 -0.125197c-13.6004,-4.04055 -29.1957,-5.38111 -44.4319,-6.68859 -9.08623,-0.779528 -17.804,33.7701 -17.804,16.1221 0,-28.7646 -22.7469,-59.9682 -38.1898,-83.4934 -1.59213,-2.50512 0.473622,-21.1654 2.8004,-39.8256 4.23662,9.17245 8.03386,17.0173 10.7941,22.1232l-0.0354331 0.0188977c13.3181,25.2402 42.5634,80.6505 95.5902,70.8839l0.00708662 0.0377953c16.8567,-3 47.1874,-10.5803 72.9142,-18.0898 24.9839,-7.29095 47.3398,-15.8043 54.6851,-22.7516 6.18071,-6.18071 11.2843,-13.5815 11.6492,-22.5992 8.09883,7.10197 15.4914,13.6476 21.3343,18.8209 7.2189,6.38977 12.7902,11.3221 13.9205,12.2469l0.0271654 -0.0330709c8.83938,7.50591 21.176,18.9614 29.4449,30.254 3.41811,4.66772 5.83111,8.31024 5.83111,9.28347 0,26.0729 0.115748,3.60827 0.0744095,10.9878 -0.246851,43.2036 -0.968505,169.481 12.8788,186.366 13.65,16.6477 29.0055,18.6673 46.1504,4.56615l0.624804 -0.499607c4.73032,-4.07717 13.3583,-15.0732 24.9036,-29.7921 14.7532,-18.8067 35.1969,-44.8678 49.7292,-62.106 8.96221,14.6126 19.0299,29.9587 26.2795,41.0103 8.96812,13.7256 17.7886,27.5516 28.2839,40.1906 2.14252,-22.3772 3.23859,-45.0603 3.23859,-67.9997 0,-194.365 -78.8044,-370.424 -206.238,-497.872 -106.778,-106.788 -244.644,-176.527 -393.851,-198.604 -0.12874,12.8398 4.59567,24.75 12.1831,34.9488 -11.5713,-0.376772 -25.0843,-0.608268 -38.6422,0.204331 -24.9792,1.49646 -48.4181,2.90315 -63.9178,6.07205l-0.124016 0c-57.8174,12.1854 -73.056,37.4776 -66.9768,66.3249 6.29174,29.8477 48.0461,53.765 70.5627,64.904 0.683859,3.16299 1.42795,6.75709 2.20276,10.4976 7.12323,34.4055 15.6957,75.7855 49.565,75.7855 16.337,0 25.2933,-6.15945 32.113,-13.2118 8.6315,2.82992 12.6331,10.2437 11.0894,19.0288l-0.0437008 -0.00826772c-0.022441,0.115748 -3.45473,2.53229 -10.2886,7.09134 -4.95591,3.30591 -11.1024,6.08032 -18.2386,7.24607 -12,-2.41654 -49.4304,-12.137 -68.256,-42.0461l-0.022441 0.0141732c-35.5595,-57.1607 -88.1327,-93.6981 -100.337,-101.706 -10.7988,-9.75946 -51.6697,-44.0067 -96.0768,-46.5296 -22.2815,-1.26614 -77.2442,26.9835 -77.4012,27.0638l-6.49961 4.5c-0.266929,0.233858 -93.5469,81.4087 -103.781,101.799 -15.8669,31.7351 -46.7055,99.091 -39.4158,133.302l0.0248032 -0.00472441c0.509056,2.44252 1.07126,5.44843 1.67244,8.65276 6.89292,36.8114 17.7177,94.591 77.6753,108.253l-0.0129921 0.056693c19.7941,4.67363 30.9047,18.5362 38.4154,27.9071 6.92245,8.63741 12.398,15.4642 22.0642,20.3291l2.10591 1.08071c-2.99646,2.94921 -5.76378,6.59764 -8.25473,11.0752l0.0425197 0.0236221c-5.58662,9.99568 -13.3169,34.5555 -17.9858,59.9339 -3.63189,19.7457 -5.83937,41.0339 -4.46811,58.1233 1.13386,14.0421 -5.83819,39.1583 -12.5563,63.3638 -5.56536,20.0516 -10.9866,39.5835 -12.9484,56.1059 -2.81811,23.8512 -0.511418,109.615 15.0461,173.847 11.5169,47.5453 31.8201,86.4355 65.7556,94.7587l-0.0153543 0.0602363c28.8142,7.16457 76.0536,0.0543308 122.368,-12.528 57.2752,-15.5599 116.689,-40.5071 136.169,-56.4248l0.125197 -0.125197c15.3532,-12.5882 31.1705,-30.7595 45.4264,-49.8579zm321.81 -439.752c5.59843,-5.19567 8.45906,-7.7693 1.64882,-0.529134 -0.274016,0.129921 -0.831497,0.304725 -1.64882,0.529134zm-594.544 60.6662c2.53229,-0.316536 1.25906,0.452363 -0.915355,1.65236 -1.4752,0.814961 -3.36614,1.82835 -4.76339,2.83583 0.0248032,-1.37717 0.0129921,-2.87126 -0.0354331,-4.22008 1.92992,0.0271654 3.79488,-0.0874016 5.70709,-0.325985l0.00708662 0.0578741zm226.518 -440.479c-4.07835,-2.46378 -6.84449,-4.54961 -7.1067,-5.79449 -0.962599,-4.56851 1.95118,1.50354 7.1067,5.79449z"/>
  <path class="fil1" d="M1156.72 1430.65c0.188977,0.0141732 0.409843,0.0141732 0.662599,0.00236221 -3.6567,-1.35473 -5.21457,-1.90512 -0.662599,-0.00236221z"/>
 </g>
</svg>
